FILE "Rayman (USA) (Track 01).bin" BINARY
  TRACK 01 MODE2/2352
    INDEX 01 00:00:00
  TRACK 02 AUDIO
    INDEX 00 09:15:60
    INDEX 01 09:17:60
  TRACK 03 AUDIO
    INDEX 00 09:27:10
    INDEX 01 09:29:10
  TRACK 04 AUDIO
    INDEX 00 10:36:43
    INDEX 01 10:38:43
  TRACK 05 AUDIO
    INDEX 00 11:43:71
    INDEX 01 11:45:71
  TRACK 06 AUDIO
    INDEX 00 12:49:20
    INDEX 01 12:51:20
  TRACK 07 AUDIO
    INDEX 00 13:17:42
    INDEX 01 13:19:42
  TRACK 08 AUDIO
    INDEX 00 14:29:23
    INDEX 01 14:31:23
  TRACK 09 AUDIO
    INDEX 00 15:30:54
    INDEX 01 15:32:54
  TRACK 10 AUDIO
    INDEX 00 16:27:29
    INDEX 01 16:29:29
  TRACK 11 AUDIO
    INDEX 00 17:32:26
    INDEX 01 17:34:26
  TRACK 12 AUDIO
    INDEX 00 18:59:19
    INDEX 01 19:01:19
  TRACK 13 AUDIO
    INDEX 00 20:01:42
    INDEX 01 20:03:42
  TRACK 14 AUDIO
    INDEX 00 21:10:65
    INDEX 01 21:12:65
  TRACK 15 AUDIO
    INDEX 00 22:15:23
    INDEX 01 22:17:23
  TRACK 16 AUDIO
    INDEX 00 23:21:06
    INDEX 01 23:23:06
  TRACK 17 AUDIO
    INDEX 00 24:29:41
    INDEX 01 24:31:41
  TRACK 18 AUDIO
    INDEX 00 25:16:52
    INDEX 01 25:18:52
  TRACK 19 AUDIO
    INDEX 00 26:14:40
    INDEX 01 26:16:40
  TRACK 20 AUDIO
    INDEX 00 27:11:31
    INDEX 01 27:13:31
  TRACK 21 AUDIO
    INDEX 00 28:17:22
    INDEX 01 28:19:22
  TRACK 22 AUDIO
    INDEX 00 29:23:10
    INDEX 01 29:25:10
  TRACK 23 AUDIO
    INDEX 00 30:40:12
    INDEX 01 30:42:12
  TRACK 24 AUDIO
    INDEX 00 31:16:28
    INDEX 01 31:18:28
  TRACK 25 AUDIO
    INDEX 00 31:52:58
    INDEX 01 31:54:58
  TRACK 26 AUDIO
    INDEX 00 33:00:26
    INDEX 01 33:02:26
  TRACK 27 AUDIO
    INDEX 00 34:08:09
    INDEX 01 34:10:09
  TRACK 28 AUDIO
    INDEX 00 35:14:69
    INDEX 01 35:16:69
  TRACK 29 AUDIO
    INDEX 00 36:25:72
    INDEX 01 36:27:72
  TRACK 30 AUDIO
    INDEX 00 36:34:33
    INDEX 01 36:36:33
  TRACK 31 AUDIO
    INDEX 00 36:41:53
    INDEX 01 36:43:53
  TRACK 32 AUDIO
    INDEX 00 38:04:36
    INDEX 01 38:06:36
  TRACK 33 AUDIO
    INDEX 00 39:11:34
    INDEX 01 39:13:34
  TRACK 34 AUDIO
    INDEX 00 40:11:30
    INDEX 01 40:13:30
  TRACK 35 AUDIO
    INDEX 00 41:22:59
    INDEX 01 41:24:59
  TRACK 36 AUDIO
    INDEX 00 42:32:53
    INDEX 01 42:34:53
  TRACK 37 AUDIO
    INDEX 00 43:37:29
    INDEX 01 43:39:29
  TRACK 38 AUDIO
    INDEX 00 44:45:73
    INDEX 01 44:47:73
  TRACK 39 AUDIO
    INDEX 00 45:51:63
    INDEX 01 45:53:63
  TRACK 40 AUDIO
    INDEX 00 46:51:02
    INDEX 01 46:53:02
  TRACK 41 AUDIO
    INDEX 00 47:38:03
    INDEX 01 47:40:03
  TRACK 42 AUDIO
    INDEX 00 48:50:67
    INDEX 01 48:52:67
  TRACK 43 AUDIO
    INDEX 00 49:53:74
    INDEX 01 49:55:74
  TRACK 44 AUDIO
    INDEX 00 51:00:26
    INDEX 01 51:02:26
  TRACK 45 AUDIO
    INDEX 00 52:09:13
    INDEX 01 52:11:13
  TRACK 46 AUDIO
    INDEX 00 53:15:55
    INDEX 01 53:17:55
  TRACK 47 AUDIO
    INDEX 00 54:14:09
    INDEX 01 54:16:09
  TRACK 48 AUDIO
    INDEX 00 55:18:07
    INDEX 01 55:20:07
  TRACK 49 AUDIO
    INDEX 00 56:20:13
    INDEX 01 56:22:13
  TRACK 50 AUDIO
    INDEX 00 57:00:21
    INDEX 01 57:02:21
  TRACK 51 AUDIO
    INDEX 00 57:43:47
    INDEX 01 57:45:47
